<mxfile host="app.diagrams.net" agent="Mozilla/5.0 (Macintosh; Intel Mac OS X 10_13_6) AppleWebKit/537.36 (KHTML, like Gecko) Chrome/116.0.5845.2325 YaBrowser/23.9.0.2325 Yowser/2.5 Safari/537.36" version="26.0.11">
  <diagram id="kgpKYQtTHZ0yAKxKKP6v" name="Page-1">
    <mxGraphModel dx="995" dy="543" grid="1" gridSize="10" guides="1" tooltips="1" connect="1" arrows="1" fold="1" page="1" pageScale="1" pageWidth="850" pageHeight="1100" math="0" shadow="0">
      <root>
        <mxCell id="0" />
        <mxCell id="1" parent="0" />
        <mxCell id="s-tv678PbhezY-uhHTnp-1" value="&lt;span style=&quot;color: rgb(0, 0, 0); font-family: Helvetica; font-size: 12px; font-style: normal; font-variant-ligatures: normal; font-variant-caps: normal; font-weight: 400; letter-spacing: normal; orphans: 2; text-align: center; text-indent: 0px; text-transform: none; widows: 2; word-spacing: 0px; -webkit-text-stroke-width: 0px; white-space: normal; background-color: rgb(251, 251, 251); text-decoration-thickness: initial; text-decoration-style: initial; text-decoration-color: initial; display: inline !important; float: none;&quot;&gt;Сервис авторизации&lt;/span&gt;" style="rounded=1;whiteSpace=wrap;html=1;strokeColor=light-dark(#FF320A,#FFFFFF);" parent="1" vertex="1">
          <mxGeometry x="130" y="380" width="160" height="90" as="geometry" />
        </mxCell>
        <mxCell id="s-tv678PbhezY-uhHTnp-4" value="&lt;span style=&quot;color: rgb(0, 0, 0); font-family: Helvetica; font-size: 12px; font-style: normal; font-variant-ligatures: normal; font-variant-caps: normal; font-weight: 700; letter-spacing: normal; orphans: 2; text-align: center; text-indent: 0px; text-transform: none; widows: 2; word-spacing: 0px; -webkit-text-stroke-width: 0px; white-space: nowrap; background-color: rgb(251, 251, 251); text-decoration-thickness: initial; text-decoration-style: initial; text-decoration-color: initial; display: inline !important; float: none;&quot;&gt;Задание 2: Возможная декомпозиция монолита&lt;/span&gt;" style="text;whiteSpace=wrap;html=1;" parent="1" vertex="1">
          <mxGeometry x="290" y="20" width="310" height="40" as="geometry" />
        </mxCell>
        <mxCell id="s-tv678PbhezY-uhHTnp-5" value="&lt;span style=&quot;color: rgb(0, 0, 0); font-family: Helvetica; font-size: 12px; font-style: normal; font-variant-ligatures: normal; font-variant-caps: normal; font-weight: 700; letter-spacing: normal; orphans: 2; text-align: center; text-indent: 0px; text-transform: none; widows: 2; word-spacing: 0px; -webkit-text-stroke-width: 0px; white-space: nowrap; background-color: rgb(251, 251, 251); text-decoration-thickness: initial; text-decoration-style: initial; text-decoration-color: initial; display: inline !important; float: none;&quot;&gt;Портал электронной площадки&lt;/span&gt;" style="text;whiteSpace=wrap;html=1;rotation=270;" parent="1" vertex="1">
          <mxGeometry x="-10" y="280" width="220" height="40" as="geometry" />
        </mxCell>
        <mxCell id="s-tv678PbhezY-uhHTnp-7" value="&lt;span style=&quot;color: rgb(0, 0, 0); font-family: Helvetica; font-size: 12px; font-style: normal; font-variant-ligatures: normal; font-variant-caps: normal; font-weight: 400; letter-spacing: normal; orphans: 2; text-align: center; text-indent: 0px; text-transform: none; widows: 2; word-spacing: 0px; -webkit-text-stroke-width: 0px; white-space: normal; background-color: rgb(251, 251, 251); text-decoration-thickness: initial; text-decoration-style: initial; text-decoration-color: initial; display: inline !important; float: none;&quot;&gt;Сервис заказов&lt;/span&gt;" style="rounded=1;whiteSpace=wrap;html=1;strokeColor=light-dark(#FF320A,#FFFFFF);" parent="1" vertex="1">
          <mxGeometry x="320" y="380" width="110" height="90" as="geometry" />
        </mxCell>
        <mxCell id="s-tv678PbhezY-uhHTnp-8" value="&lt;span style=&quot;color: rgb(0, 0, 0); font-family: Helvetica; font-size: 12px; font-style: normal; font-variant-ligatures: normal; font-variant-caps: normal; font-weight: 400; letter-spacing: normal; orphans: 2; text-align: center; text-indent: 0px; text-transform: none; widows: 2; word-spacing: 0px; -webkit-text-stroke-width: 0px; white-space: normal; background-color: rgb(251, 251, 251); text-decoration-thickness: initial; text-decoration-style: initial; text-decoration-color: initial; display: inline !important; float: none;&quot;&gt;Сервис услуг&lt;/span&gt;" style="rounded=1;whiteSpace=wrap;html=1;strokeColor=light-dark(#FF320A,#FFFFFF);" parent="1" vertex="1">
          <mxGeometry x="465" y="380" width="110" height="90" as="geometry" />
        </mxCell>
        <mxCell id="s-tv678PbhezY-uhHTnp-9" value="&lt;span style=&quot;color: rgb(0, 0, 0); font-family: Helvetica; font-size: 12px; font-style: normal; font-variant-ligatures: normal; font-variant-caps: normal; font-weight: 400; letter-spacing: normal; orphans: 2; text-align: center; text-indent: 0px; text-transform: none; widows: 2; word-spacing: 0px; -webkit-text-stroke-width: 0px; white-space: normal; background-color: rgb(251, 251, 251); text-decoration-thickness: initial; text-decoration-style: initial; text-decoration-color: initial; display: inline !important; float: none;&quot;&gt;Сервис аукциона&lt;/span&gt;" style="rounded=1;whiteSpace=wrap;html=1;strokeColor=light-dark(#FF320A,#FFFFFF);" parent="1" vertex="1">
          <mxGeometry x="610" y="380" width="110" height="90" as="geometry" />
        </mxCell>
        <mxCell id="s-tv678PbhezY-uhHTnp-11" value="React/HTML/CSS" style="text;html=1;align=center;verticalAlign=middle;whiteSpace=wrap;rounded=0;" parent="1" vertex="1">
          <mxGeometry x="180" y="95" width="60" height="40" as="geometry" />
        </mxCell>
        <mxCell id="s-tv678PbhezY-uhHTnp-13" value="React/HTML/CSS" style="text;html=1;align=center;verticalAlign=middle;whiteSpace=wrap;rounded=0;" parent="1" vertex="1">
          <mxGeometry x="345" y="95" width="60" height="40" as="geometry" />
        </mxCell>
        <mxCell id="s-tv678PbhezY-uhHTnp-14" value="React/HTML/CSS" style="text;html=1;align=center;verticalAlign=middle;whiteSpace=wrap;rounded=0;" parent="1" vertex="1">
          <mxGeometry x="490" y="95" width="60" height="40" as="geometry" />
        </mxCell>
        <mxCell id="s-tv678PbhezY-uhHTnp-15" value="React/HTML/CSS" style="text;html=1;align=center;verticalAlign=middle;whiteSpace=wrap;rounded=0;" parent="1" vertex="1">
          <mxGeometry x="610" y="95" width="110" height="40" as="geometry" />
        </mxCell>
        <mxCell id="s-tv678PbhezY-uhHTnp-16" value="&lt;span style=&quot;color: rgb(0, 0, 0); font-family: Helvetica; font-size: 12px; font-style: normal; font-variant-ligatures: normal; font-variant-caps: normal; font-weight: 400; letter-spacing: normal; orphans: 2; text-align: center; text-indent: 0px; text-transform: none; widows: 2; word-spacing: 0px; -webkit-text-stroke-width: 0px; white-space: normal; background-color: rgb(251, 251, 251); text-decoration-thickness: initial; text-decoration-style: initial; text-decoration-color: initial; display: inline !important; float: none;&quot;&gt;Регистрация и редактирование профиля пользователя&lt;/span&gt;" style="rounded=1;whiteSpace=wrap;html=1;strokeColor=light-dark(#FF320A,#FFFFFF);" parent="1" vertex="1">
          <mxGeometry x="130" y="140" width="160" height="120" as="geometry" />
        </mxCell>
        <mxCell id="s-tv678PbhezY-uhHTnp-21" value="&lt;span style=&quot;color: rgb(0, 0, 0); font-family: Helvetica; font-size: 12px; font-style: normal; font-variant-ligatures: normal; font-variant-caps: normal; font-weight: 400; letter-spacing: normal; orphans: 2; text-align: center; text-indent: 0px; text-transform: none; widows: 2; word-spacing: 0px; -webkit-text-stroke-width: 0px; white-space: normal; background-color: rgb(251, 251, 251); text-decoration-thickness: initial; text-decoration-style: initial; text-decoration-color: initial; display: inline !important; float: none;&quot;&gt;&amp;nbsp;Размещение заказов пользователем&lt;/span&gt;" style="rounded=1;whiteSpace=wrap;html=1;strokeColor=light-dark(#FF320A,#FFFFFF);" parent="1" vertex="1">
          <mxGeometry x="320" y="140" width="110" height="120" as="geometry" />
        </mxCell>
        <mxCell id="s-tv678PbhezY-uhHTnp-22" value="&lt;span style=&quot;color: rgb(0, 0, 0); font-family: Helvetica; font-size: 12px; font-style: normal; font-variant-ligatures: normal; font-variant-caps: normal; font-weight: 400; letter-spacing: normal; orphans: 2; text-align: center; text-indent: 0px; text-transform: none; widows: 2; word-spacing: 0px; -webkit-text-stroke-width: 0px; white-space: normal; background-color: rgb(251, 251, 251); text-decoration-thickness: initial; text-decoration-style: initial; text-decoration-color: initial; display: inline !important; float: none;&quot;&gt;&amp;nbsp;Размещение услуг пользователем&lt;/span&gt;" style="rounded=1;whiteSpace=wrap;html=1;strokeColor=light-dark(#FF320A,#FFFFFF);" parent="1" vertex="1">
          <mxGeometry x="465" y="140" width="110" height="120" as="geometry" />
        </mxCell>
        <mxCell id="s-tv678PbhezY-uhHTnp-23" value="&lt;span style=&quot;color: rgb(0, 0, 0); font-family: Helvetica; font-size: 12px; font-style: normal; font-variant-ligatures: normal; font-variant-caps: normal; font-weight: 400; letter-spacing: normal; orphans: 2; text-align: center; text-indent: 0px; text-transform: none; widows: 2; word-spacing: 0px; -webkit-text-stroke-width: 0px; white-space: normal; background-color: rgb(251, 251, 251); text-decoration-thickness: initial; text-decoration-style: initial; text-decoration-color: initial; display: inline !important; float: none;&quot;&gt;Аукцион&lt;/span&gt;" style="rounded=1;whiteSpace=wrap;html=1;strokeColor=light-dark(#FF320A,#FFFFFF);" parent="1" vertex="1">
          <mxGeometry x="610" y="140" width="110" height="120" as="geometry" />
        </mxCell>
        <mxCell id="s-tv678PbhezY-uhHTnp-25" value="&lt;span style=&quot;color: rgb(0, 0, 0); font-family: Helvetica; font-size: 12px; font-style: normal; font-variant-ligatures: normal; font-variant-caps: normal; font-weight: 400; letter-spacing: normal; orphans: 2; text-align: center; text-indent: 0px; text-transform: none; widows: 2; word-spacing: 0px; -webkit-text-stroke-width: 0px; white-space: normal; background-color: rgb(251, 251, 251); text-decoration-thickness: initial; text-decoration-style: initial; text-decoration-color: initial; display: inline !important; float: none;&quot;&gt;Сервис поиска&lt;/span&gt;" style="rounded=1;whiteSpace=wrap;html=1;strokeColor=light-dark(#FF320A,#FFFFFF);" parent="1" vertex="1">
          <mxGeometry x="760" y="380" width="110" height="90" as="geometry" />
        </mxCell>
        <mxCell id="s-tv678PbhezY-uhHTnp-26" value="&lt;span style=&quot;color: rgb(0, 0, 0); font-family: Helvetica; font-size: 12px; font-style: normal; font-variant-ligatures: normal; font-variant-caps: normal; font-weight: 400; letter-spacing: normal; orphans: 2; text-align: center; text-indent: 0px; text-transform: none; widows: 2; word-spacing: 0px; -webkit-text-stroke-width: 0px; white-space: normal; background-color: rgb(251, 251, 251); text-decoration-thickness: initial; text-decoration-style: initial; text-decoration-color: initial; display: inline !important; float: none;&quot;&gt;Сервис оплаты&lt;/span&gt;" style="rounded=1;whiteSpace=wrap;html=1;strokeColor=light-dark(#FF320A,#FFFFFF);" parent="1" vertex="1">
          <mxGeometry x="910" y="380" width="110" height="90" as="geometry" />
        </mxCell>
        <mxCell id="s-tv678PbhezY-uhHTnp-27" value="&lt;span style=&quot;color: rgb(0, 0, 0); font-family: Helvetica; font-size: 12px; font-style: normal; font-variant-ligatures: normal; font-variant-caps: normal; font-weight: 400; letter-spacing: normal; orphans: 2; text-align: center; text-indent: 0px; text-transform: none; widows: 2; word-spacing: 0px; -webkit-text-stroke-width: 0px; white-space: normal; background-color: rgb(251, 251, 251); text-decoration-thickness: initial; text-decoration-style: initial; text-decoration-color: initial; display: inline !important; float: none;&quot;&gt;Аналитический сервис&lt;/span&gt;" style="rounded=1;whiteSpace=wrap;html=1;strokeColor=light-dark(#FF320A,#FFFFFF);" parent="1" vertex="1">
          <mxGeometry x="1060" y="380" width="110" height="90" as="geometry" />
        </mxCell>
        <mxCell id="s-tv678PbhezY-uhHTnp-28" value="" style="rounded=1;whiteSpace=wrap;html=1;strokeColor=light-dark(#FF2007,#FFFFFF);" parent="1" vertex="1">
          <mxGeometry x="130" y="300" width="1040" height="30" as="geometry" />
        </mxCell>
        <mxCell id="s-tv678PbhezY-uhHTnp-30" value="Шина данных (Kafka | RabbitMQ | SAP PI)&amp;nbsp;" style="text;html=1;align=center;verticalAlign=middle;whiteSpace=wrap;rounded=0;" parent="1" vertex="1">
          <mxGeometry x="450" y="300" width="320" height="30" as="geometry" />
        </mxCell>
        <mxCell id="50NvU-xwB35Kj3Ts2R44-1" value="TurboPay" style="rounded=0;whiteSpace=wrap;html=1;" vertex="1" parent="1">
          <mxGeometry x="890" y="40" width="120" height="60" as="geometry" />
        </mxCell>
        <mxCell id="50NvU-xwB35Kj3Ts2R44-2" value="FastMoney" style="rounded=0;whiteSpace=wrap;html=1;" vertex="1" parent="1">
          <mxGeometry x="950" y="85" width="120" height="60" as="geometry" />
        </mxCell>
        <mxCell id="50NvU-xwB35Kj3Ts2R44-3" value="Яндекс.Pay" style="rounded=0;whiteSpace=wrap;html=1;" vertex="1" parent="1">
          <mxGeometry x="1010" y="130" width="120" height="60" as="geometry" />
        </mxCell>
        <mxCell id="50NvU-xwB35Kj3Ts2R44-4" value="" style="endArrow=classic;startArrow=classic;html=1;rounded=0;entryX=0.5;entryY=1;entryDx=0;entryDy=0;exitX=0.564;exitY=1.022;exitDx=0;exitDy=0;exitPerimeter=0;" edge="1" parent="1" source="s-tv678PbhezY-uhHTnp-26" target="50NvU-xwB35Kj3Ts2R44-3">
          <mxGeometry width="50" height="50" relative="1" as="geometry">
            <mxPoint x="680" y="290" as="sourcePoint" />
            <mxPoint x="730" y="240" as="targetPoint" />
            <Array as="points">
              <mxPoint x="972" y="540" />
              <mxPoint x="1280" y="540" />
              <mxPoint x="1280" y="260" />
              <mxPoint x="1070" y="260" />
            </Array>
          </mxGeometry>
        </mxCell>
        <mxCell id="50NvU-xwB35Kj3Ts2R44-5" value="" style="endArrow=classic;startArrow=classic;html=1;rounded=0;exitX=0.077;exitY=0.067;exitDx=0;exitDy=0;exitPerimeter=0;" edge="1" parent="1" source="s-tv678PbhezY-uhHTnp-28">
          <mxGeometry width="50" height="50" relative="1" as="geometry">
            <mxPoint x="160" y="310" as="sourcePoint" />
            <mxPoint x="210" y="260" as="targetPoint" />
          </mxGeometry>
        </mxCell>
        <mxCell id="50NvU-xwB35Kj3Ts2R44-6" value="" style="endArrow=classic;startArrow=classic;html=1;rounded=0;exitX=0.077;exitY=0.067;exitDx=0;exitDy=0;exitPerimeter=0;" edge="1" parent="1">
          <mxGeometry width="50" height="50" relative="1" as="geometry">
            <mxPoint x="374.58000000000004" y="302" as="sourcePoint" />
            <mxPoint x="374.58000000000004" y="260" as="targetPoint" />
          </mxGeometry>
        </mxCell>
        <mxCell id="50NvU-xwB35Kj3Ts2R44-7" value="" style="endArrow=classic;startArrow=classic;html=1;rounded=0;exitX=0.077;exitY=0.067;exitDx=0;exitDy=0;exitPerimeter=0;" edge="1" parent="1">
          <mxGeometry width="50" height="50" relative="1" as="geometry">
            <mxPoint x="519.5799999999999" y="302" as="sourcePoint" />
            <mxPoint x="519.5799999999999" y="260" as="targetPoint" />
          </mxGeometry>
        </mxCell>
        <mxCell id="50NvU-xwB35Kj3Ts2R44-8" value="" style="endArrow=classic;startArrow=classic;html=1;rounded=0;exitX=0.077;exitY=0.067;exitDx=0;exitDy=0;exitPerimeter=0;" edge="1" parent="1">
          <mxGeometry width="50" height="50" relative="1" as="geometry">
            <mxPoint x="664.5799999999999" y="302" as="sourcePoint" />
            <mxPoint x="664.5799999999999" y="260" as="targetPoint" />
          </mxGeometry>
        </mxCell>
        <mxCell id="50NvU-xwB35Kj3Ts2R44-9" value="" style="endArrow=classic;startArrow=classic;html=1;rounded=0;entryX=0.076;entryY=0.956;entryDx=0;entryDy=0;entryPerimeter=0;" edge="1" parent="1" target="s-tv678PbhezY-uhHTnp-28">
          <mxGeometry width="50" height="50" relative="1" as="geometry">
            <mxPoint x="210.32" y="380" as="sourcePoint" />
            <mxPoint x="210.00000000000006" y="333.65999999999997" as="targetPoint" />
          </mxGeometry>
        </mxCell>
        <mxCell id="50NvU-xwB35Kj3Ts2R44-10" value="" style="endArrow=classic;startArrow=classic;html=1;rounded=0;entryX=0.236;entryY=0.928;entryDx=0;entryDy=0;entryPerimeter=0;" edge="1" parent="1" target="s-tv678PbhezY-uhHTnp-28">
          <mxGeometry width="50" height="50" relative="1" as="geometry">
            <mxPoint x="374.9" y="380" as="sourcePoint" />
            <mxPoint x="374.58000000000004" y="333.65999999999997" as="targetPoint" />
          </mxGeometry>
        </mxCell>
        <mxCell id="50NvU-xwB35Kj3Ts2R44-11" value="" style="endArrow=classic;startArrow=classic;html=1;rounded=0;entryX=0.067;entryY=1.122;entryDx=0;entryDy=0;entryPerimeter=0;exitX=0.5;exitY=0;exitDx=0;exitDy=0;" edge="1" parent="1" source="s-tv678PbhezY-uhHTnp-8">
          <mxGeometry width="50" height="50" relative="1" as="geometry">
            <mxPoint x="519.9" y="376.34" as="sourcePoint" />
            <mxPoint x="519.58" y="329.99999999999994" as="targetPoint" />
          </mxGeometry>
        </mxCell>
        <mxCell id="50NvU-xwB35Kj3Ts2R44-12" value="" style="endArrow=classic;startArrow=classic;html=1;rounded=0;entryX=0.067;entryY=1.122;entryDx=0;entryDy=0;entryPerimeter=0;exitX=0.5;exitY=0;exitDx=0;exitDy=0;" edge="1" parent="1">
          <mxGeometry width="50" height="50" relative="1" as="geometry">
            <mxPoint x="665" y="380" as="sourcePoint" />
            <mxPoint x="664.58" y="329.99999999999994" as="targetPoint" />
          </mxGeometry>
        </mxCell>
        <mxCell id="50NvU-xwB35Kj3Ts2R44-13" value="" style="endArrow=classic;startArrow=classic;html=1;rounded=0;entryX=0.067;entryY=1.122;entryDx=0;entryDy=0;entryPerimeter=0;exitX=0.5;exitY=0;exitDx=0;exitDy=0;" edge="1" parent="1">
          <mxGeometry width="50" height="50" relative="1" as="geometry">
            <mxPoint x="815" y="380" as="sourcePoint" />
            <mxPoint x="814.58" y="329.99999999999994" as="targetPoint" />
          </mxGeometry>
        </mxCell>
        <mxCell id="50NvU-xwB35Kj3Ts2R44-14" value="" style="endArrow=classic;startArrow=classic;html=1;rounded=0;entryX=0.067;entryY=1.122;entryDx=0;entryDy=0;entryPerimeter=0;exitX=0.5;exitY=0;exitDx=0;exitDy=0;" edge="1" parent="1">
          <mxGeometry width="50" height="50" relative="1" as="geometry">
            <mxPoint x="965" y="380" as="sourcePoint" />
            <mxPoint x="964.58" y="329.99999999999994" as="targetPoint" />
          </mxGeometry>
        </mxCell>
        <mxCell id="50NvU-xwB35Kj3Ts2R44-15" value="" style="endArrow=classic;startArrow=classic;html=1;rounded=0;entryX=0.067;entryY=1.122;entryDx=0;entryDy=0;entryPerimeter=0;exitX=0.5;exitY=0;exitDx=0;exitDy=0;" edge="1" parent="1">
          <mxGeometry width="50" height="50" relative="1" as="geometry">
            <mxPoint x="1115" y="380" as="sourcePoint" />
            <mxPoint x="1114.58" y="329.99999999999994" as="targetPoint" />
          </mxGeometry>
        </mxCell>
      </root>
    </mxGraphModel>
  </diagram>
</mxfile>
